<svg xmlns="http://www.w3.org/2000/svg" xmlns:xlink="http://www.w3.org/1999/xlink" version="1.0" x="0px" y="0px" viewBox="0 0 60.252 60.342" enable-background="new 0 0 60.252 60.252" xml:space="preserve">
  <path d="m102.62,7.19c1.26,0.68 2.46,1.46 3.6,2.33c0.37,0.28 0.82,0.43 1.26,0.43c0.62,0 1.23,-0.28 1.64,-0.82c0.7,-0.9 0.53,-2.2 -0.38,-2.9c-1.31,-1.01 -2.7,-1.91 -4.17,-2.7c-1.01,-0.53 -2.27,-0.15 -2.8,0.86c-0.55,1.01 -0.16,2.26 0.85,2.8zm15.39,10.88c-0.54,-1.23 -1.15,-2.42 -1.84,-3.56c-0.6,-0.98 -1.26,-1.93 -1.96,-2.84c-0.7,-0.9 -2,-1.07 -2.91,-0.37c-0.9,0.71 -1.07,2.01 -0.36,2.91c0.6,0.78 1.17,1.61 1.68,2.45c0.6,0.99 1.13,2.01 1.6,3.07c1.39,3.18 2.16,6.69 2.16,10.39c0,7.19 -2.91,13.67 -7.61,18.37c-4.71,4.71 -11.19,7.61 -18.37,7.61c-7.18,0 -13.67,-2.9 -18.37,-7.61c-4.71,-4.7 -7.61,-11.18 -7.61,-18.37c0,-7.18 2.9,-13.66 7.61,-18.37c4.7,-4.7 11.19,-7.6 18.37,-7.6c1.73,0 3.43,0.17 5.07,0.49c1.12,0.22 2.21,-0.51 2.43,-1.63c0.23,-1.13 -0.51,-2.22 -1.63,-2.44c-1.9,-0.37 -3.87,-0.57 -5.87,-0.57c-16.64,0 -30.13,13.49 -30.13,30.13c0,16.63 13.49,30.12 30.13,30.12c16.64,0 30.12,-13.49 30.12,-30.12c0,-4.28 -0.89,-8.37 -2.51,-12.06z" fill="#000000" transform="rotate(90, 60.2711, 0)"/>
  <path d="m31.43,15.09c-0.73,-0.68 -1.87,-0.68 -2.61,0c-0.04,0.04 -2.61,2.42 -5.23,5.73c-2.59,3.34 -5.37,7.46 -5.45,11.77c0,3.81 1.28,7.11 3.47,9.43c2.18,2.33 5.23,3.65 8.52,3.65l0.01,0c3.28,0 6.33,-1.32 8.51,-3.65c2.18,-2.32 3.47,-5.62 3.46,-9.43c-0.07,-4.31 -2.86,-8.43 -5.44,-11.77c-2.62,-3.31 -5.2,-5.69 -5.24,-5.73zm-1.3,26.74c-4.49,-0.06 -8.07,-3.34 -8.15,-9.24c-0.07,-2.44 2.17,-6.37 4.62,-9.39c1.2,-1.52 2.42,-2.86 3.34,-3.8c0.06,-0.07 0.12,-0.14 0.18,-0.2c0.07,0.06 0.13,0.13 0.19,0.2c1.37,1.42 3.43,3.72 5.1,6.2c1.69,2.47 2.89,5.17 2.86,6.99c-0.08,5.9 -3.66,9.18 -8.14,9.24z" fill="#000000"/>
</svg>
